# xmcd
#
# Track frame offsets:
#	150
#	12088
#	29148
#	40550
#	52597
#	65978
#	82481
#	96387
#	113461
#	127426
#
# Disc length: 1932 seconds
#
# Revision: 5
# Processed by: cddbd v1.5.1PL0 Copyright (c) Steve Scherf et al.
# Submitted via: audiograbber 1.83.01
#
DISCID=8b078a0a
DTITLE=Mark Merritt - Cobblestone Streets
DYEAR=1996
DGENRE=Country
TTITLE0=Next  Sturday Night
TTITLE1=Home
TTITLE2=Her Little Finger
TTITLE3=The Farmer's Daughter
TTITLE4=Four Walls And The Blues
TTITLE5=What I Can
TTITLE6=Island Paradise
TTITLE7=Love Enough For All
TTITLE8=Times Do Change
TTITLE9=Cobblestone Streets (And The White Wash Fence)
EXTD=Choo-Choo Seven Musik und Verlag, \n1996 AVANCE Records
EXTT0=
EXTT1=
EXTT2=
EXTT3=
EXTT4=
EXTT5=
EXTT6=
EXTT7=
EXTT8=
EXTT9=
PLAYORDER=
